<svg xmlns="http://www.w3.org/2000/svg" version="1.1" xmlns:xlink="http://www.w3.org/1999/xlink" xmlns:svgjs="http://svgjs.com/svgjs" width="1440" height="560" preserveAspectRatio="none" viewBox="0 0 1440 560">
    <g mask="url(&quot;#SvgjsMask4640&quot;)" fill="none">
        <rect width="1440" opacity='0.55' height="560" x="0" y="0" fill="url(#SvgjsRadialGradient4641)"></rect>
        <path d="M130.89 72.9L162.07 90.9L162.07 126.9L130.89 144.9L99.71 126.9L99.71 90.9zM162.07 342.9L193.25 360.9L193.25 396.9L162.07 414.9L130.89 396.9L130.89 360.9zM286.78 126.9L317.96 144.9L317.96 180.9L286.78 198.9L255.6 180.9L255.6 144.9zM255.6 396.9L286.78 414.9L286.78 450.9L255.6 468.9L224.42 450.9L224.42 414.9zM317.96 -35.1L349.14 -17.1L349.14 18.9L317.96 36.9L286.78 18.9L286.78 -17.1zM349.14 18.9L380.31 36.9L380.31 72.9L349.14 90.9L317.96 72.9L317.96 36.9zM380.31 180.9L411.49 198.9L411.49 234.9L380.31 252.9L349.14 234.9L349.14 198.9zM411.49 342.9L442.67 360.9L442.67 396.9L411.49 414.9L380.31 396.9L380.31 360.9zM380.31 504.9L411.49 522.9L411.49 558.9L380.31 576.9L349.14 558.9L349.14 522.9zM442.67 396.9L473.85 414.9L473.85 450.9L442.67 468.9L411.49 450.9L411.49 414.9zM536.2 450.9L567.38 468.9L567.38 504.9L536.2 522.9L505.02 504.9L505.02 468.9zM692.09 72.9L723.27 90.9L723.27 126.9L692.09 144.9L660.91 126.9L660.91 90.9zM723.27 342.9L754.45 360.9L754.45 396.9L723.27 414.9L692.09 396.9L692.09 360.9zM816.8 288.9L847.98 306.9L847.98 342.9L816.8 360.9L785.62 342.9L785.62 306.9zM847.98 342.9L879.16 360.9L879.16 396.9L847.98 414.9L816.8 396.9L816.8 360.9zM847.98 450.9L879.16 468.9L879.16 504.9L847.98 522.9L816.8 504.9L816.8 468.9zM910.34 234.9L941.51 252.9L941.51 288.9L910.34 306.9L879.16 288.9L879.16 252.9zM910.34 450.9L941.51 468.9L941.51 504.9L910.34 522.9L879.16 504.9L879.16 468.9zM879.16 504.9L910.34 522.9L910.34 558.9L879.16 576.9L847.98 558.9L847.98 522.9zM941.51 288.9L972.69 306.9L972.69 342.9L941.51 360.9L910.34 342.9L910.34 306.9zM1035.05 342.9L1066.23 360.9L1066.23 396.9L1035.05 414.9L1003.87 396.9L1003.87 360.9zM1159.76 18.9L1190.94 36.9L1190.94 72.9L1159.76 90.9L1128.58 72.9L1128.58 36.9zM1346.83 450.9L1378 468.9L1378 504.9L1346.83 522.9L1315.65 504.9L1315.65 468.9zM1440.36 -35.1L1471.54 -17.1L1471.54 18.9L1440.36 36.9L1409.18 18.9L1409.18 -17.1zM1440.36 72.9L1471.54 90.9L1471.54 126.9L1440.36 144.9L1409.18 126.9L1409.18 90.9zM1471.54 342.9L1502.71 360.9L1502.71 396.9L1471.54 414.9L1440.36 396.9L1440.36 360.9z" stroke="rgba(229, 229, 229, 1)" stroke-width="2"></path>
        <path d="M127.29 72.9 a3.6 3.6 0 1 0 7.2 0 a3.6 3.6 0 1 0 -7.2 0zM158.47 90.9 a3.6 3.6 0 1 0 7.2 0 a3.6 3.6 0 1 0 -7.2 0zM158.47 126.9 a3.6 3.6 0 1 0 7.2 0 a3.6 3.6 0 1 0 -7.2 0zM127.29 144.9 a3.6 3.6 0 1 0 7.2 0 a3.6 3.6 0 1 0 -7.2 0zM96.11 126.9 a3.6 3.6 0 1 0 7.2 0 a3.6 3.6 0 1 0 -7.2 0zM96.11 90.9 a3.6 3.6 0 1 0 7.2 0 a3.6 3.6 0 1 0 -7.2 0zM158.47 342.9 a3.6 3.6 0 1 0 7.2 0 a3.6 3.6 0 1 0 -7.2 0zM189.65 360.9 a3.6 3.6 0 1 0 7.2 0 a3.6 3.6 0 1 0 -7.2 0zM189.65 396.9 a3.6 3.6 0 1 0 7.2 0 a3.6 3.6 0 1 0 -7.2 0zM158.47 414.9 a3.6 3.6 0 1 0 7.2 0 a3.6 3.6 0 1 0 -7.2 0zM127.29 396.9 a3.6 3.6 0 1 0 7.2 0 a3.6 3.6 0 1 0 -7.2 0zM127.29 360.9 a3.6 3.6 0 1 0 7.2 0 a3.6 3.6 0 1 0 -7.2 0zM283.18 126.9 a3.6 3.6 0 1 0 7.2 0 a3.6 3.6 0 1 0 -7.2 0zM314.36 144.9 a3.6 3.6 0 1 0 7.2 0 a3.6 3.6 0 1 0 -7.2 0zM314.36 180.9 a3.6 3.6 0 1 0 7.2 0 a3.6 3.6 0 1 0 -7.2 0zM283.18 198.9 a3.6 3.6 0 1 0 7.2 0 a3.6 3.6 0 1 0 -7.2 0zM252 180.9 a3.6 3.6 0 1 0 7.2 0 a3.6 3.6 0 1 0 -7.2 0zM252 144.9 a3.6 3.6 0 1 0 7.2 0 a3.6 3.6 0 1 0 -7.2 0zM252 396.9 a3.6 3.6 0 1 0 7.2 0 a3.6 3.6 0 1 0 -7.2 0zM283.18 414.9 a3.6 3.6 0 1 0 7.2 0 a3.6 3.6 0 1 0 -7.2 0zM283.18 450.9 a3.6 3.6 0 1 0 7.2 0 a3.6 3.6 0 1 0 -7.2 0zM252 468.9 a3.6 3.6 0 1 0 7.2 0 a3.6 3.6 0 1 0 -7.2 0zM220.82 450.9 a3.6 3.6 0 1 0 7.2 0 a3.6 3.6 0 1 0 -7.2 0zM220.82 414.9 a3.6 3.6 0 1 0 7.2 0 a3.6 3.6 0 1 0 -7.2 0zM314.36 -35.1 a3.6 3.6 0 1 0 7.2 0 a3.6 3.6 0 1 0 -7.2 0zM345.54 -17.1 a3.6 3.6 0 1 0 7.2 0 a3.6 3.6 0 1 0 -7.2 0zM345.54 18.9 a3.6 3.6 0 1 0 7.2 0 a3.6 3.6 0 1 0 -7.2 0zM314.36 36.9 a3.6 3.6 0 1 0 7.2 0 a3.6 3.6 0 1 0 -7.2 0zM283.18 18.9 a3.6 3.6 0 1 0 7.2 0 a3.6 3.6 0 1 0 -7.2 0zM283.18 -17.1 a3.6 3.6 0 1 0 7.2 0 a3.6 3.6 0 1 0 -7.2 0zM376.71 36.9 a3.6 3.6 0 1 0 7.2 0 a3.6 3.6 0 1 0 -7.2 0zM376.71 72.9 a3.6 3.6 0 1 0 7.2 0 a3.6 3.6 0 1 0 -7.2 0zM345.54 90.9 a3.6 3.6 0 1 0 7.2 0 a3.6 3.6 0 1 0 -7.2 0zM314.36 72.9 a3.6 3.6 0 1 0 7.2 0 a3.6 3.6 0 1 0 -7.2 0zM376.71 180.9 a3.6 3.6 0 1 0 7.2 0 a3.6 3.6 0 1 0 -7.2 0zM407.89 198.9 a3.6 3.6 0 1 0 7.2 0 a3.6 3.6 0 1 0 -7.2 0zM407.89 234.9 a3.6 3.6 0 1 0 7.2 0 a3.6 3.6 0 1 0 -7.2 0zM376.71 252.9 a3.6 3.6 0 1 0 7.2 0 a3.6 3.6 0 1 0 -7.2 0zM345.54 234.9 a3.6 3.6 0 1 0 7.2 0 a3.6 3.6 0 1 0 -7.2 0zM345.54 198.9 a3.6 3.6 0 1 0 7.2 0 a3.6 3.6 0 1 0 -7.2 0zM407.89 342.9 a3.6 3.6 0 1 0 7.2 0 a3.6 3.6 0 1 0 -7.2 0zM439.07 360.9 a3.6 3.6 0 1 0 7.2 0 a3.6 3.6 0 1 0 -7.2 0zM439.07 396.9 a3.6 3.6 0 1 0 7.2 0 a3.6 3.6 0 1 0 -7.2 0zM407.89 414.9 a3.6 3.6 0 1 0 7.2 0 a3.6 3.6 0 1 0 -7.2 0zM376.71 396.9 a3.6 3.6 0 1 0 7.2 0 a3.6 3.6 0 1 0 -7.2 0zM376.71 360.9 a3.6 3.6 0 1 0 7.2 0 a3.6 3.6 0 1 0 -7.2 0zM376.71 504.9 a3.6 3.6 0 1 0 7.2 0 a3.6 3.6 0 1 0 -7.2 0zM407.89 522.9 a3.6 3.6 0 1 0 7.2 0 a3.6 3.6 0 1 0 -7.2 0zM407.89 558.9 a3.6 3.6 0 1 0 7.2 0 a3.6 3.6 0 1 0 -7.2 0zM376.71 576.9 a3.6 3.6 0 1 0 7.2 0 a3.6 3.6 0 1 0 -7.2 0zM345.54 558.9 a3.6 3.6 0 1 0 7.2 0 a3.6 3.6 0 1 0 -7.2 0zM345.54 522.9 a3.6 3.6 0 1 0 7.2 0 a3.6 3.6 0 1 0 -7.2 0zM470.25 414.9 a3.6 3.6 0 1 0 7.2 0 a3.6 3.6 0 1 0 -7.2 0zM470.25 450.9 a3.6 3.6 0 1 0 7.2 0 a3.6 3.6 0 1 0 -7.2 0zM439.07 468.9 a3.6 3.6 0 1 0 7.2 0 a3.6 3.6 0 1 0 -7.2 0zM407.89 450.9 a3.6 3.6 0 1 0 7.2 0 a3.6 3.6 0 1 0 -7.2 0zM532.6 450.9 a3.6 3.6 0 1 0 7.2 0 a3.6 3.6 0 1 0 -7.2 0zM563.78 468.9 a3.6 3.6 0 1 0 7.2 0 a3.6 3.6 0 1 0 -7.2 0zM563.78 504.9 a3.6 3.6 0 1 0 7.2 0 a3.6 3.6 0 1 0 -7.2 0zM532.6 522.9 a3.6 3.6 0 1 0 7.2 0 a3.6 3.6 0 1 0 -7.2 0zM501.42 504.9 a3.6 3.6 0 1 0 7.2 0 a3.6 3.6 0 1 0 -7.2 0zM501.42 468.9 a3.6 3.6 0 1 0 7.2 0 a3.6 3.6 0 1 0 -7.2 0zM688.49 72.9 a3.6 3.6 0 1 0 7.2 0 a3.6 3.6 0 1 0 -7.2 0zM719.67 90.9 a3.6 3.6 0 1 0 7.2 0 a3.6 3.6 0 1 0 -7.2 0zM719.67 126.9 a3.6 3.6 0 1 0 7.2 0 a3.6 3.6 0 1 0 -7.2 0zM688.49 144.9 a3.6 3.6 0 1 0 7.2 0 a3.6 3.6 0 1 0 -7.2 0zM657.31 126.9 a3.6 3.6 0 1 0 7.2 0 a3.6 3.6 0 1 0 -7.2 0zM657.31 90.9 a3.6 3.6 0 1 0 7.2 0 a3.6 3.6 0 1 0 -7.2 0zM719.67 342.9 a3.6 3.6 0 1 0 7.2 0 a3.6 3.6 0 1 0 -7.2 0zM750.85 360.9 a3.6 3.6 0 1 0 7.2 0 a3.6 3.6 0 1 0 -7.2 0zM750.85 396.9 a3.6 3.6 0 1 0 7.2 0 a3.6 3.6 0 1 0 -7.2 0zM719.67 414.9 a3.6 3.6 0 1 0 7.2 0 a3.6 3.6 0 1 0 -7.2 0zM688.49 396.9 a3.6 3.6 0 1 0 7.2 0 a3.6 3.6 0 1 0 -7.2 0zM688.49 360.9 a3.6 3.6 0 1 0 7.2 0 a3.6 3.6 0 1 0 -7.2 0zM813.2 288.9 a3.6 3.6 0 1 0 7.2 0 a3.6 3.6 0 1 0 -7.2 0zM844.38 306.9 a3.6 3.6 0 1 0 7.2 0 a3.6 3.6 0 1 0 -7.2 0zM844.38 342.9 a3.6 3.6 0 1 0 7.2 0 a3.6 3.6 0 1 0 -7.2 0zM813.2 360.9 a3.6 3.6 0 1 0 7.2 0 a3.6 3.6 0 1 0 -7.2 0zM782.02 342.9 a3.6 3.6 0 1 0 7.2 0 a3.6 3.6 0 1 0 -7.2 0zM782.02 306.9 a3.6 3.6 0 1 0 7.2 0 a3.6 3.6 0 1 0 -7.2 0zM875.56 360.9 a3.6 3.6 0 1 0 7.2 0 a3.6 3.6 0 1 0 -7.2 0zM875.56 396.9 a3.6 3.6 0 1 0 7.2 0 a3.6 3.6 0 1 0 -7.2 0zM844.38 414.9 a3.6 3.6 0 1 0 7.2 0 a3.6 3.6 0 1 0 -7.2 0zM813.2 396.9 a3.6 3.6 0 1 0 7.2 0 a3.6 3.6 0 1 0 -7.2 0zM844.38 450.9 a3.6 3.6 0 1 0 7.2 0 a3.6 3.6 0 1 0 -7.2 0zM875.56 468.9 a3.6 3.6 0 1 0 7.2 0 a3.6 3.6 0 1 0 -7.2 0zM875.56 504.9 a3.6 3.6 0 1 0 7.2 0 a3.6 3.6 0 1 0 -7.2 0zM844.38 522.9 a3.6 3.6 0 1 0 7.2 0 a3.6 3.6 0 1 0 -7.2 0zM813.2 504.9 a3.6 3.6 0 1 0 7.2 0 a3.6 3.6 0 1 0 -7.2 0zM813.2 468.9 a3.6 3.6 0 1 0 7.2 0 a3.6 3.6 0 1 0 -7.2 0zM906.74 234.9 a3.6 3.6 0 1 0 7.2 0 a3.6 3.6 0 1 0 -7.2 0zM937.91 252.9 a3.6 3.6 0 1 0 7.2 0 a3.6 3.6 0 1 0 -7.2 0zM937.91 288.9 a3.6 3.6 0 1 0 7.2 0 a3.6 3.6 0 1 0 -7.2 0zM906.74 306.9 a3.6 3.6 0 1 0 7.2 0 a3.6 3.6 0 1 0 -7.2 0zM875.56 288.9 a3.6 3.6 0 1 0 7.2 0 a3.6 3.6 0 1 0 -7.2 0zM875.56 252.9 a3.6 3.6 0 1 0 7.2 0 a3.6 3.6 0 1 0 -7.2 0zM906.74 450.9 a3.6 3.6 0 1 0 7.2 0 a3.6 3.6 0 1 0 -7.2 0zM937.91 468.9 a3.6 3.6 0 1 0 7.2 0 a3.6 3.6 0 1 0 -7.2 0zM937.91 504.9 a3.6 3.6 0 1 0 7.2 0 a3.6 3.6 0 1 0 -7.2 0zM906.74 522.9 a3.6 3.6 0 1 0 7.2 0 a3.6 3.6 0 1 0 -7.2 0zM906.74 558.9 a3.6 3.6 0 1 0 7.2 0 a3.6 3.6 0 1 0 -7.2 0zM875.56 576.9 a3.6 3.6 0 1 0 7.2 0 a3.6 3.6 0 1 0 -7.2 0zM844.38 558.9 a3.6 3.6 0 1 0 7.2 0 a3.6 3.6 0 1 0 -7.2 0zM969.09 306.9 a3.6 3.6 0 1 0 7.2 0 a3.6 3.6 0 1 0 -7.2 0zM969.09 342.9 a3.6 3.6 0 1 0 7.2 0 a3.6 3.6 0 1 0 -7.2 0zM937.91 360.9 a3.6 3.6 0 1 0 7.2 0 a3.6 3.6 0 1 0 -7.2 0zM906.74 342.9 a3.6 3.6 0 1 0 7.2 0 a3.6 3.6 0 1 0 -7.2 0zM1031.45 342.9 a3.6 3.6 0 1 0 7.2 0 a3.6 3.6 0 1 0 -7.2 0zM1062.63 360.9 a3.6 3.6 0 1 0 7.2 0 a3.6 3.6 0 1 0 -7.2 0zM1062.63 396.9 a3.6 3.6 0 1 0 7.2 0 a3.6 3.6 0 1 0 -7.2 0zM1031.45 414.9 a3.6 3.6 0 1 0 7.2 0 a3.6 3.6 0 1 0 -7.2 0zM1000.27 396.9 a3.6 3.6 0 1 0 7.2 0 a3.6 3.6 0 1 0 -7.2 0zM1000.27 360.9 a3.6 3.6 0 1 0 7.2 0 a3.6 3.6 0 1 0 -7.2 0zM1156.16 18.9 a3.6 3.6 0 1 0 7.2 0 a3.6 3.6 0 1 0 -7.2 0zM1187.34 36.9 a3.6 3.6 0 1 0 7.2 0 a3.6 3.6 0 1 0 -7.2 0zM1187.34 72.9 a3.6 3.6 0 1 0 7.2 0 a3.6 3.6 0 1 0 -7.2 0zM1156.16 90.9 a3.6 3.6 0 1 0 7.2 0 a3.6 3.6 0 1 0 -7.2 0zM1124.98 72.9 a3.6 3.6 0 1 0 7.2 0 a3.6 3.6 0 1 0 -7.2 0zM1124.98 36.9 a3.6 3.6 0 1 0 7.2 0 a3.6 3.6 0 1 0 -7.2 0zM1343.23 450.9 a3.6 3.6 0 1 0 7.2 0 a3.6 3.6 0 1 0 -7.2 0zM1374.4 468.9 a3.6 3.6 0 1 0 7.2 0 a3.6 3.6 0 1 0 -7.2 0zM1374.4 504.9 a3.6 3.6 0 1 0 7.2 0 a3.6 3.6 0 1 0 -7.2 0zM1343.23 522.9 a3.6 3.6 0 1 0 7.2 0 a3.6 3.6 0 1 0 -7.2 0zM1312.05 504.9 a3.6 3.6 0 1 0 7.2 0 a3.6 3.6 0 1 0 -7.2 0zM1312.05 468.9 a3.6 3.6 0 1 0 7.2 0 a3.6 3.6 0 1 0 -7.2 0zM1436.76 -35.1 a3.6 3.6 0 1 0 7.2 0 a3.6 3.6 0 1 0 -7.2 0zM1467.94 -17.1 a3.6 3.6 0 1 0 7.2 0 a3.6 3.6 0 1 0 -7.2 0zM1467.94 18.9 a3.6 3.6 0 1 0 7.2 0 a3.6 3.6 0 1 0 -7.2 0zM1436.76 36.9 a3.6 3.6 0 1 0 7.2 0 a3.6 3.6 0 1 0 -7.2 0zM1405.58 18.9 a3.6 3.6 0 1 0 7.2 0 a3.6 3.6 0 1 0 -7.2 0zM1405.58 -17.1 a3.6 3.6 0 1 0 7.2 0 a3.6 3.6 0 1 0 -7.2 0zM1436.76 72.9 a3.6 3.6 0 1 0 7.2 0 a3.6 3.6 0 1 0 -7.2 0zM1467.94 90.9 a3.6 3.6 0 1 0 7.2 0 a3.6 3.6 0 1 0 -7.2 0zM1467.94 126.9 a3.6 3.6 0 1 0 7.2 0 a3.6 3.6 0 1 0 -7.2 0zM1436.76 144.9 a3.6 3.6 0 1 0 7.2 0 a3.6 3.6 0 1 0 -7.2 0zM1405.58 126.9 a3.6 3.6 0 1 0 7.2 0 a3.6 3.6 0 1 0 -7.2 0zM1405.58 90.9 a3.6 3.6 0 1 0 7.2 0 a3.6 3.6 0 1 0 -7.2 0zM1467.94 342.9 a3.6 3.6 0 1 0 7.2 0 a3.6 3.6 0 1 0 -7.2 0zM1499.11 360.9 a3.6 3.6 0 1 0 7.2 0 a3.6 3.6 0 1 0 -7.2 0zM1499.11 396.9 a3.6 3.6 0 1 0 7.2 0 a3.6 3.6 0 1 0 -7.2 0zM1467.94 414.9 a3.6 3.6 0 1 0 7.2 0 a3.6 3.6 0 1 0 -7.2 0zM1436.76 396.9 a3.6 3.6 0 1 0 7.2 0 a3.6 3.6 0 1 0 -7.2 0zM1436.76 360.9 a3.6 3.6 0 1 0 7.2 0 a3.6 3.6 0 1 0 -7.2 0z" fill="rgba(229, 229, 229, 1)"></path>
        <path d="M60.17 50L96.55 71L96.55 113L60.17 134L23.8 113L23.8 71zM23.8 239L60.17 260L60.17 302L23.8 323L-12.57 302L-12.57 260zM60.17 302L96.55 323L96.55 365L60.17 386L23.8 365L23.8 323zM60.17 428L96.55 449L96.55 491L60.17 512L23.8 491L23.8 449zM96.55 -13L132.92 8L132.92 50L96.55 71L60.17 50L60.17 8zM96.55 491L132.92 512L132.92 554L96.55 575L60.17 554L60.17 512zM169.3 -13L205.67 8L205.67 50L169.3 71L132.92 50L132.92 8zM205.67 50L242.04 71L242.04 113L205.67 134L169.3 113L169.3 71zM169.3 491L205.67 512L205.67 554L169.3 575L132.92 554L132.92 512zM242.04 -13L278.42 8L278.42 50L242.04 71L205.67 50L205.67 8zM242.04 365L278.42 386L278.42 428L242.04 449L205.67 428L205.67 386zM351.17 50L387.54 71L387.54 113L351.17 134L314.79 113L314.79 71zM351.17 302L387.54 323L387.54 365L351.17 386L314.79 365L314.79 323zM351.17 428L387.54 449L387.54 491L351.17 512L314.79 491L314.79 449zM423.92 176L460.29 197L460.29 239L423.92 260L387.54 239L387.54 197zM423.92 302L460.29 323L460.29 365L423.92 386L387.54 365L387.54 323zM460.29 491L496.66 512L496.66 554L460.29 575L423.92 554L423.92 512zM533.04 -13L569.41 8L569.41 50L533.04 71L496.66 50L496.66 8zM569.41 50L605.79 71L605.79 113L569.41 134L533.04 113L533.04 71zM533.04 113L569.41 134L569.41 176L533.04 197L496.66 176L496.66 134zM605.79 113L642.16 134L642.16 176L605.79 197L569.41 176L569.41 134zM642.16 554L678.53 575L678.53 617L642.16 638L605.79 617L605.79 575zM678.53 -13L714.91 8L714.91 50L678.53 71L642.16 50L642.16 8zM678.53 365L714.91 386L714.91 428L678.53 449L642.16 428L642.16 386zM678.53 491L714.91 512L714.91 554L678.53 575L642.16 554L642.16 512zM714.91 554L751.28 575L751.28 617L714.91 638L678.53 617L678.53 575zM787.66 302L824.03 323L824.03 365L787.66 386L751.28 365L751.28 323zM787.66 428L824.03 449L824.03 491L787.66 512L751.28 491L751.28 449zM824.03 113L860.4 134L860.4 176L824.03 197L787.66 176L787.66 134zM896.78 -13L933.15 8L933.15 50L896.78 71L860.4 50L860.4 8zM933.15 176L969.53 197L969.53 239L933.15 260L896.78 239L896.78 197zM896.78 365L933.15 386L933.15 428L896.78 449L860.4 428L860.4 386zM933.15 554L969.53 575L969.53 617L933.15 638L896.78 617L896.78 575zM1005.9 50L1042.27 71L1042.27 113L1005.9 134L969.53 113L969.53 71zM969.53 491L1005.9 512L1005.9 554L969.53 575L933.15 554L933.15 512zM1078.65 176L1115.02 197L1115.02 239L1078.65 260L1042.27 239L1042.27 197zM1078.65 428L1115.02 449L1115.02 491L1078.65 512L1042.27 491L1042.27 449zM1078.65 554L1115.02 575L1115.02 617L1078.65 638L1042.27 617L1042.27 575zM1115.02 113L1151.4 134L1151.4 176L1115.02 197L1078.65 176L1078.65 134zM1115.02 365L1151.4 386L1151.4 428L1115.02 449L1078.65 428L1078.65 386zM1224.15 176L1260.52 197L1260.52 239L1224.15 260L1187.77 239L1187.77 197zM1187.77 239L1224.15 260L1224.15 302L1187.77 323L1151.4 302L1151.4 260zM1187.77 365L1224.15 386L1224.15 428L1187.77 449L1151.4 428L1151.4 386zM1187.77 491L1224.15 512L1224.15 554L1187.77 575L1151.4 554L1151.4 512zM1260.52 113L1296.89 134L1296.89 176L1260.52 197L1224.15 176L1224.15 134zM1296.89 302L1333.27 323L1333.27 365L1296.89 386L1260.52 365L1260.52 323zM1333.27 113L1369.64 134L1369.64 176L1333.27 197L1296.89 176L1296.89 134zM1369.64 176L1406.02 197L1406.02 239L1369.64 260L1333.27 239L1333.27 197zM1369.64 428L1406.02 449L1406.02 491L1369.64 512L1333.27 491L1333.27 449zM1333.27 491L1369.64 512L1369.64 554L1333.27 575L1296.89 554L1296.89 512zM1369.64 554L1406.02 575L1406.02 617L1369.64 638L1333.27 617L1333.27 575zM1442.39 428L1478.76 449L1478.76 491L1442.39 512L1406.02 491L1406.02 449z" stroke="rgba(229, 229, 229, 1)" stroke-width="2"></path>
    </g>
    <defs>
        <mask id="SvgjsMask4640">
            <rect width="1440" height="560" fill="#ffffff"></rect>
        </mask>
        <radialGradient cx="50%" cy="50%" r="772.53" gradientUnits="userSpaceOnUse" id="SvgjsRadialGradient4641">
            <stop stop-color="rgba(255, 169, 28, 1)" offset="0.51"></stop>
            <stop stop-color="rgba(237, 207, 130, 1)" offset="0.85"></stop>
        </radialGradient>
    </defs>
</svg>